<?xml version="1.0" encoding="utf-8"?>
<!-- Generator: Adobe Illustrator 21.0.2, SVG Export Plug-In . SVG Version: 6.00 Build 0)  -->
<svg version="1.1" id="Layer_1" xmlns="http://www.w3.org/2000/svg" xmlns:xlink="http://www.w3.org/1999/xlink" x="0px" y="0px"
	 viewBox="0 0 1366 412" style="enable-background:new 0 0 1366 412;" xml:space="preserve">
<style type="text/css">
	.st0{fill:#5184C2;}
</style>
<path class="st0" d="M553.2,232.3c0,3.3-2.4,4.9-7.1,4.9h-31.9v97.5h-36.8v-97.5H368c-5.9,0-8.9-2.1-8.9-6.2
	c0-2.7,3.5-8.6,10.6-17.7L502.3,40.5c5.3-7.1,9.1-10.6,11.5-10.6c2.7,0,4,1.3,4,4c0,2.1-9.2,14.4-27.7,37.1
	c-9.7,12.1-27.3,35.4-52.9,69.8c-17.4,23.3-33.5,45.1-48.3,65.2c-2.7,3.2-6.7,8.1-11.9,14.8l-3.3,5c16,0.6,32.5,0.9,49.7,0.9h54.1
	V110.9h36.8v115.7h16.8c6.2-0.3,10.6-0.5,13.1-0.7c2.5-0.1,3.6-0.2,3.3-0.2C551.3,225.7,553.2,227.9,553.2,232.3z"/>
<path class="st0" d="M796.9,284.2c0,30.7-14,56-42.1,75.8c-21.3,15.1-44.5,22.6-69.6,22.6c-29.5,0-54.9-9.7-76-29.2
	c-21.1-19.5-31.7-42.8-31.7-70c0-17.7,4.8-34.5,14.4-50.3c9.6-15.8,22.5-28.3,38.8-37.4c20.1-11.2,41.1-16.8,62.9-16.8
	c13.3,0,26.9,2.9,40.8,8.6c13.9,5.8,25.3,13.1,34.1,21.9C787.5,228.5,796.9,253.4,796.9,284.2z M760.2,279.7
	c0-27.5-6.6-49.6-19.8-66.5c-13.2-16.8-30.5-25.3-51.8-25.3c-20.5,0-37,8.9-49.8,26.8c-12.7,17.9-19.1,41.1-19.1,69.8
	c0,29.8,8.4,53.2,25.3,70c12.1,12.1,25.8,18.2,40.9,18.2c24,0,43.4-10.6,58.2-31.9C754.8,325.5,760.2,305.1,760.2,279.7z"/>
<path class="st0" d="M1008.3,232.3c0,3.3-2.4,4.9-7.1,4.9h-31.9v97.5h-36.8v-97.5H823.1c-5.9,0-8.9-2.1-8.9-6.2
	c0-2.7,3.5-8.6,10.6-17.7L957.3,40.5c5.3-7.1,9.1-10.6,11.5-10.6c2.7,0,4,1.3,4,4c0,2.1-9.2,14.4-27.7,37.1
	c-9.7,12.1-27.3,35.4-52.9,69.8c-17.4,23.3-33.5,45.1-48.3,65.2c-2.7,3.2-6.7,8.1-11.9,14.8l-3.3,5c16,0.6,32.5,0.9,49.7,0.9h54.1
	V110.9h36.8v115.7h16.8c6.2-0.3,10.6-0.5,13.1-0.7c2.5-0.1,3.6-0.2,3.3-0.2C1006.4,225.7,1008.3,227.9,1008.3,232.3z"/>
</svg>
