<?xml version="1.0" encoding="utf-8"?>
<!-- Generator: Adobe Illustrator 21.0.0, SVG Export Plug-In . SVG Version: 6.00 Build 0)  -->
<svg version="1.1" id="Layer_1" xmlns="http://www.w3.org/2000/svg" xmlns:xlink="http://www.w3.org/1999/xlink" x="0px" y="0px"
	 viewBox="0 0 287.5 75.5" style="enable-background:new 0 0 287.5 75.5;" xml:space="preserve">
<style type="text/css">
	.st0{fill:#FFFFFF;}
</style>
<title>logo-nuevecubica-long</title>
<path class="st0" d="M143.9,34c1,1,1.5,2.3,1.4,3.7V47h-3.7v-8.4c0-0.6-0.1-1.1-0.3-1.7c-0.4-0.7-1.2-1.2-2-1.1
	c-1.1-0.1-2.1,0.5-2.5,1.6c-0.3,0.7-0.4,1.4-0.4,2.1V47h-3.6V33.3h3.5v2c0.4-0.6,0.8-1.1,1.4-1.5c0.8-0.6,1.8-0.9,2.8-0.8
	C141.7,32.9,142.9,33.3,143.9,34z"/>
<path class="st0" d="M152.2,33.2v8.3c0,0.6,0.1,1.2,0.3,1.8c0.3,0.7,1.1,1.2,1.9,1.1c1.1,0.1,2.1-0.5,2.5-1.5
	c0.3-0.7,0.4-1.4,0.4-2.1v-7.5h3.7V47h-3.5v-1.9l-0.2,0.4c-0.1,0.2-0.3,0.4-0.5,0.6c-0.5,0.4-1,0.8-1.6,1c-0.6,0.2-1.2,0.3-1.9,0.3
	c-2,0-3.4-0.7-4.1-2.2c-0.5-1.1-0.7-2.4-0.6-3.6v-8.3H152.2z"/>
<path class="st0" d="M173.4,33.5c1,0.4,1.8,1.1,2.4,2c0.6,0.9,1,1.8,1.1,2.8c0.1,0.9,0.2,1.8,0.1,2.7h-10c-0.1,1.2,0.5,2.3,1.4,2.9
	c0.6,0.4,1.3,0.5,2,0.5c1.2,0.1,2.2-0.5,2.7-1.6h3.7c-0.2,1-0.6,1.8-1.3,2.5c-1.4,1.4-3.3,2.1-5.2,2c-1.8,0-3.5-0.6-4.9-1.7
	c-1.4-1.1-2.1-3-2.1-5.5c-0.1-2,0.6-4,1.9-5.5c1.3-1.3,3.1-2,4.9-1.9C171.3,32.8,172.4,33.1,173.4,33.5z M168,36.6
	c-0.6,0.6-0.9,1.3-1,2.1h6.2c0-0.8-0.4-1.6-1-2.2c-0.6-0.5-1.4-0.8-2.1-0.7C169.3,35.8,168.6,36.1,168,36.6L168,36.6z"/>
<path class="st0" d="M187.3,33.2h3.9l-5,13.8h-3.8l-4.9-13.8h4l2.9,10.2L187.3,33.2z"/>
<path class="st0" d="M202.2,33.5c1,0.4,1.8,1.1,2.4,2c0.6,0.9,1,1.8,1.1,2.8c0.1,0.9,0.2,1.8,0.1,2.7h-10c-0.1,1.2,0.5,2.3,1.4,2.9
	c0.6,0.4,1.3,0.5,2,0.5c1.2,0.1,2.2-0.5,2.7-1.6h3.6c-0.2,1-0.6,1.8-1.3,2.5c-1.4,1.4-3.3,2.1-5.2,2c-1.8,0-3.5-0.6-4.9-1.7
	c-1.4-1.1-2.1-3-2.1-5.5c-0.1-2,0.6-4,1.9-5.5c1.3-1.3,3.1-2,4.9-1.9C200.1,32.8,201.2,33.1,202.2,33.5z M196.8,36.6
	c-0.6,0.6-0.9,1.3-1,2.1h6.2c0-0.8-0.4-1.6-1-2.2c-0.6-0.5-1.4-0.8-2.1-0.7C198.1,35.8,197.4,36.1,196.8,36.6L196.8,36.6z"/>
<path class="st0" d="M223.8,34.2c1.1,1,1.7,2.4,1.7,3.8h-2.2c-0.1-0.8-0.4-1.5-0.9-2.1c-0.6-0.6-1.5-0.9-2.3-0.8
	c-1.4,0-2.6,0.8-3.1,2.1c-0.4,1.1-0.6,2.2-0.6,3.4c0,1.2,0.3,2.4,0.9,3.4c1.1,1.5,3.1,1.9,4.7,0.8c0.1-0.1,0.2-0.2,0.3-0.3
	c0.6-0.7,1-1.5,1.1-2.4h2.2c-0.1,3-2.5,5.3-5.5,5.2c-0.1,0-0.2,0-0.3,0c-1.6,0.1-3.2-0.7-4.2-1.9c-1.1-1.4-1.6-3.1-1.6-4.8
	c-0.1-2,0.5-4,1.7-5.5c1.1-1.3,2.7-2,4.4-2C221.4,33,222.7,33.4,223.8,34.2z"/>
<path class="st0" d="M230.1,33.5v9c0,0.6,0.1,1.2,0.3,1.7c0.4,0.8,1.3,1.3,2.2,1.2c1.4,0.1,2.7-0.8,3.1-2.1c0.3-1,0.5-2.1,0.5-3.1
	v-6.7h2.3V47h-2.1v-2c-0.3,0.5-0.6,0.9-1.1,1.3c-0.9,0.7-2,1.1-3.1,1.1c-1.9,0-3.2-0.6-3.9-1.9c-0.4-0.9-0.6-1.8-0.6-2.8v-9.2H230.1
	z M235.9,28l-3.4,3.7h-1.8l2.3-3.7H235.9z"/>
<path class="st0" d="M242,28.4h2.2v6.7c1-1.3,2.5-2,4-2c1.6-0.1,3.1,0.6,4.1,1.7c1.2,1.5,1.7,3.3,1.6,5.1c0.1,1.9-0.5,3.8-1.6,5.3
	c-1,1.4-2.6,2.2-4.3,2.1c-0.9,0-1.8-0.2-2.6-0.8c-0.5-0.4-1-0.9-1.4-1.4V47H242L242,28.4z M250.7,44c0.7-1.2,1-2.5,0.9-3.9
	c0-1.2-0.3-2.5-0.9-3.5c-0.6-0.9-1.6-1.5-2.7-1.4c-1,0-2,0.4-2.7,1.2c-0.9,1.1-1.3,2.4-1.2,3.8c0,1.1,0.1,2.1,0.5,3.1
	c0.5,1.4,1.9,2.3,3.4,2.2C249,45.5,250.1,44.9,250.7,44L250.7,44z"/>
<path class="st0" d="M256.6,28.4h2.3V31h-2.3V28.4z M256.6,33.5h2.3V47h-2.3V33.5z"/>
<path class="st0" d="M271.3,34.2c1.1,1,1.7,2.4,1.7,3.8h-2.2c-0.1-0.8-0.4-1.5-0.9-2.1c-0.6-0.6-1.5-0.9-2.3-0.8
	c-1.4,0-2.6,0.8-3.1,2.1c-0.4,1.1-0.6,2.2-0.6,3.4c0,1.2,0.3,2.4,0.9,3.4c1.1,1.5,3.1,1.9,4.7,0.8c0.1-0.1,0.2-0.2,0.3-0.3
	c0.6-0.7,1-1.5,1.1-2.4h2.2c-0.1,3-2.5,5.3-5.5,5.2c-0.1,0-0.2,0-0.3,0c-1.6,0.1-3.2-0.7-4.2-1.9c-1.1-1.4-1.6-3.1-1.6-4.8
	c-0.1-2,0.5-4,1.7-5.5c1.1-1.3,2.7-2,4.4-2C268.9,33,270.2,33.4,271.3,34.2z"/>
<path class="st0" d="M282.6,38.8c0.4,0,0.8-0.3,1-0.7c0.1-0.3,0.2-0.6,0.1-0.9c0.1-0.7-0.3-1.3-0.8-1.7c-0.7-0.4-1.5-0.6-2.4-0.5
	c-1-0.1-1.9,0.3-2.5,1c-0.3,0.5-0.5,1-0.5,1.6h-2.1c-0.1-1.4,0.5-2.7,1.6-3.5c1.1-0.7,2.3-1,3.6-1c1.4-0.1,2.7,0.3,3.9,0.9
	c1,0.6,1.6,1.7,1.5,2.8v7.8c0,0.2,0,0.4,0.1,0.6c0.2,0.2,0.4,0.2,0.6,0.2h0.3l0.4-0.1v1.7c-0.3,0.1-0.5,0.1-0.8,0.2
	c-0.3,0-0.5,0-0.8,0c-0.7,0.1-1.3-0.3-1.7-0.8c-0.2-0.4-0.3-0.8-0.4-1.2c-0.5,0.7-1.2,1.2-2,1.6c-0.9,0.5-1.9,0.7-2.9,0.7
	c-1.1,0-2.2-0.4-3.1-1.1c-0.8-0.7-1.2-1.8-1.2-2.9c-0.1-1.1,0.4-2.2,1.2-2.9c0.9-0.7,2-1.2,3.1-1.3L282.6,38.8z M277.8,45
	c0.5,0.4,1.1,0.6,1.7,0.6c0.8,0,1.6-0.2,2.3-0.6c1.2-0.5,2-1.7,1.9-3v-1.8c-0.3,0.2-0.7,0.3-1.1,0.4c-0.4,0.1-0.9,0.2-1.3,0.2
	L280,41c-0.6,0.1-1.3,0.2-1.9,0.5c-0.7,0.4-1.1,1.1-1.1,1.9C277,44,277.3,44.6,277.8,45z"/>
<path class="st0" d="M119.2,0c-6.3,0-11.3,4.7-11.3,10.4s5.1,10.4,11.3,10.4s11.3-4.7,11.3-10.4S125.5,0,119.2,0z M123.2,16.3
	c-1.1,1-2.5,1.5-4,1.4c-2.2,0-3.7-0.6-4.5-2c-0.5-0.8-0.7-1.8-0.7-2.7h3c0,0.5,0.1,1,0.3,1.4c0.4,0.7,1.2,1.1,2,1
	c0.6,0,1.1-0.2,1.5-0.6c0.5-0.4,0.7-1,0.7-1.6c0-0.8-0.5-1.6-1.2-1.8c-0.7-0.2-1.5-0.3-2.2-0.3v-2c0.7,0,1.4-0.1,2-0.3
	c0.7-0.3,1.1-0.9,1-1.6c0-0.5-0.2-1-0.5-1.3c-0.4-0.4-0.9-0.5-1.4-0.5c-0.6,0-1.2,0.2-1.6,0.6c-0.4,0.5-0.5,1.1-0.5,1.7h-2.8
	c0-0.7,0.2-1.4,0.4-2c0.3-0.6,0.7-1.1,1.2-1.5c0.4-0.3,0.9-0.6,1.4-0.8c0.6-0.2,1.3-0.3,2-0.3c1.3-0.1,2.5,0.3,3.5,1
	c0.9,0.7,1.4,1.7,1.3,2.8c0,0.8-0.3,1.5-0.8,2.1c-0.3,0.3-0.6,0.6-1.1,0.7c0.5,0.1,0.9,0.3,1.2,0.6c0.8,0.7,1.2,1.7,1.1,2.7
	C124.5,14.3,124,15.5,123.2,16.3L123.2,16.3z"/>
<path class="st0" d="M35.1,14.6C38.9,10.9,43.8,9,49.8,9c9.3,0,15.6,3.8,19.1,11.3c2,4.3,2.9,9.9,2.9,16.9c0,6.8-0.9,12.4-2.8,16.9
	c-3.6,8.6-10.2,12.9-19.7,12.9c-4.4,0.1-8.7-1.2-12.3-3.7c-3.6-2.5-5.9-6.5-6.3-10.9h11.9c0.2,1.6,1,3,2.3,4
	c1.4,1.1,3.1,1.6,4.9,1.5c4,0,6.7-2,8.3-6c1-3.1,1.6-6.4,1.6-9.7c-1,1.2-2.2,2.2-3.5,2.9c-2.6,1.3-5.4,1.9-8.3,1.8
	c-4.7,0-9.3-1.6-12.9-4.6c-3.8-3.1-5.6-7.5-5.6-13.3C29.5,23.2,31.4,18.3,35.1,14.6z M55.3,36.8c2.7-1.6,4.1-4.4,4.1-8.3
	c0.1-2.7-0.7-5.4-2.4-7.5c-1.7-1.9-4.1-2.9-6.6-2.8c-1.9-0.1-3.7,0.5-5.2,1.6c-2.3,1.7-3.5,4.4-3.5,8.4c0,3.3,0.7,5.8,2.2,7.5
	c1.5,1.6,3.7,2.5,6.8,2.5C52.3,38.1,53.9,37.7,55.3,36.8z"/>
<path class="st0" d="M13.4,37.8c0,37.7,26.4,37.7,26.4,37.7C25.9,75.5,0,75.5,0,37.8S25.9,0.1,39.8,0.1C39.8,0.1,13.4,0.1,13.4,37.8
	z"/>
<path class="st0" d="M87.9,37.8c0,37.7-26.4,37.7-26.4,37.7c13.9,0,39.8,0,39.8-37.7S75.4,0.1,61.5,0.1C61.5,0.1,87.9,0.1,87.9,37.8
	z"/>
</svg>
