<svg id="Layer_1" data-name="Layer 1" xmlns="http://www.w3.org/2000/svg" viewBox="0 0 287.48 75.5"><defs><style>.cls-1{fill:#666766;}.cls-2{fill:#888;}.cls-3{fill:#5185c3;}</style></defs><title>logo-nuevecubica-long</title><path class="cls-1" d="M156.24,46.62a4.56,4.56,0,0,1,1.35,3.71v9.29H153.9V51.23a3.85,3.85,0,0,0-.29-1.67,2,2,0,0,0-2-1.06,2.49,2.49,0,0,0-2.5,1.56,5.38,5.38,0,0,0-.35,2.1v7.46h-3.61V45.86h3.49v2A6.11,6.11,0,0,1,150,46.34a4.54,4.54,0,0,1,2.81-.83A5.28,5.28,0,0,1,156.24,46.62Z" transform="translate(-12.37 -12.6)"/><path class="cls-1" d="M164.54,45.83v8.31a4.37,4.37,0,0,0,.28,1.77A1.91,1.91,0,0,0,166.74,57a2.52,2.52,0,0,0,2.52-1.49,5.43,5.43,0,0,0,.35-2.14v-7.5h3.66V59.62h-3.5V57.67l-.25.38a2.52,2.52,0,0,1-.48.56,5,5,0,0,1-1.63,1,5.56,5.56,0,0,1-1.85.28q-3.05,0-4.11-2.2a8.44,8.44,0,0,1-.59-3.58V45.83Z" transform="translate(-12.37 -12.6)"/><path class="cls-1" d="M185.76,46.11a5.61,5.61,0,0,1,2.38,2,6.78,6.78,0,0,1,1.1,2.85,17.62,17.62,0,0,1,.12,2.74h-10a3.31,3.31,0,0,0,1.44,2.91,3.66,3.66,0,0,0,2,.52,2.8,2.8,0,0,0,2.74-1.58h3.68a4.5,4.5,0,0,1-1.34,2.49,6.7,6.7,0,0,1-5.19,2,7.52,7.52,0,0,1-4.86-1.7q-2.1-1.7-2.1-5.52a7.47,7.47,0,0,1,1.9-5.49,6.65,6.65,0,0,1,4.93-1.91A7.85,7.85,0,0,1,185.76,46.11Zm-5.39,3.11a3.74,3.74,0,0,0-1,2.13h6.21a3,3,0,0,0-1-2.18,3.16,3.16,0,0,0-2.14-.74A2.86,2.86,0,0,0,180.37,49.23Z" transform="translate(-12.37 -12.6)"/><path class="cls-1" d="M199.68,45.83h3.87l-5,13.79h-3.8l-4.94-13.79h4L196.74,56Z" transform="translate(-12.37 -12.6)"/><path class="cls-1" d="M214.58,46.11a5.61,5.61,0,0,1,2.38,2,6.78,6.78,0,0,1,1.1,2.85,17.62,17.62,0,0,1,.12,2.74h-10a3.31,3.31,0,0,0,1.44,2.91,3.66,3.66,0,0,0,2,.52,2.8,2.8,0,0,0,2.74-1.58H218a4.5,4.5,0,0,1-1.34,2.49,6.7,6.7,0,0,1-5.19,2,7.52,7.52,0,0,1-4.86-1.7q-2.1-1.7-2.1-5.52a7.47,7.47,0,0,1,1.9-5.49,6.65,6.65,0,0,1,4.93-1.91A7.85,7.85,0,0,1,214.58,46.11Zm-5.39,3.11a3.74,3.74,0,0,0-1,2.13h6.21a3,3,0,0,0-1-2.18,3.16,3.16,0,0,0-2.14-.74A2.86,2.86,0,0,0,209.18,49.23Z" transform="translate(-12.37 -12.6)"/><path class="cls-2" d="M236.14,46.79a5.33,5.33,0,0,1,1.73,3.83h-2.21a4.09,4.09,0,0,0-.92-2.08,2.92,2.92,0,0,0-2.31-.83,3.2,3.2,0,0,0-3.11,2.12,8.42,8.42,0,0,0-.61,3.4,6.39,6.39,0,0,0,.86,3.42,3.34,3.34,0,0,0,5,.53,4.75,4.75,0,0,0,1.14-2.36h2.21A5.35,5.35,0,0,1,232.08,60a5.18,5.18,0,0,1-4.24-1.94,7.43,7.43,0,0,1-1.58-4.85A8.17,8.17,0,0,1,228,47.67a5.6,5.6,0,0,1,4.42-2A5.91,5.91,0,0,1,236.14,46.79Z" transform="translate(-12.37 -12.6)"/><path class="cls-2" d="M242.42,46.07v9a3.88,3.88,0,0,0,.32,1.7A2.22,2.22,0,0,0,244.94,58a3.12,3.12,0,0,0,3.15-2.13,8.64,8.64,0,0,0,.46-3.12V46.07h2.28V59.62h-2.15l0-2a4.58,4.58,0,0,1-1.08,1.3,4.7,4.7,0,0,1-3.1,1.06q-2.84,0-3.87-1.94a5.86,5.86,0,0,1-.56-2.77V46.07Zm5.84-5.45-3.38,3.66h-1.75l2.31-3.66Z" transform="translate(-12.37 -12.6)"/><path class="cls-2" d="M254.36,41h2.21v6.74a5,5,0,0,1,4.05-2,5.31,5.31,0,0,1,4.12,1.74,7.39,7.39,0,0,1,1.58,5.13,8.77,8.77,0,0,1-1.56,5.34,5.07,5.07,0,0,1-4.33,2.13,4.45,4.45,0,0,1-2.62-.75,6.28,6.28,0,0,1-1.36-1.42v1.73h-2.1Zm8.71,15.6A7.2,7.2,0,0,0,264,52.7a6.33,6.33,0,0,0-.92-3.54,3,3,0,0,0-2.71-1.4,3.79,3.79,0,0,0-2.74,1.15,5.16,5.16,0,0,0-1.17,3.8,8.37,8.37,0,0,0,.48,3.1A3.33,3.33,0,0,0,260.29,58,3.05,3.05,0,0,0,263.06,56.57Z" transform="translate(-12.37 -12.6)"/><path class="cls-2" d="M269,41h2.31v2.58H269Zm0,5.1h2.31V59.62H269Z" transform="translate(-12.37 -12.6)"/><path class="cls-2" d="M283.66,46.79a5.34,5.34,0,0,1,1.73,3.83h-2.21a4.09,4.09,0,0,0-.92-2.08,2.92,2.92,0,0,0-2.31-.83,3.2,3.2,0,0,0-3.11,2.12,8.42,8.42,0,0,0-.61,3.4,6.39,6.39,0,0,0,.86,3.42,3.34,3.34,0,0,0,5,.53,4.74,4.74,0,0,0,1.14-2.36h2.21A5.35,5.35,0,0,1,279.61,60a5.18,5.18,0,0,1-4.24-1.94,7.43,7.43,0,0,1-1.58-4.85,8.17,8.17,0,0,1,1.73-5.55,5.6,5.6,0,0,1,4.42-2A5.91,5.91,0,0,1,283.66,46.79Z" transform="translate(-12.37 -12.6)"/><path class="cls-2" d="M294.93,51.42a1.24,1.24,0,0,0,1-.66,2,2,0,0,0,.15-.88,1.86,1.86,0,0,0-.83-1.7,4.42,4.42,0,0,0-2.37-.53,3,3,0,0,0-2.53,1,3.2,3.2,0,0,0-.54,1.59h-2.13a3.93,3.93,0,0,1,1.62-3.5,6.64,6.64,0,0,1,3.62-1,7.36,7.36,0,0,1,3.88.91,3.09,3.09,0,0,1,1.48,2.83v7.81a1,1,0,0,0,.15.57.7.7,0,0,0,.61.21l.34,0,.4-.06v1.68a6.32,6.32,0,0,1-.81.19,5.91,5.91,0,0,1-.76,0,1.87,1.87,0,0,1-1.71-.83,3.21,3.21,0,0,1-.39-1.25,5.79,5.79,0,0,1-2,1.58,6.18,6.18,0,0,1-2.87.67,4.27,4.27,0,0,1-3.08-1.14,3.79,3.79,0,0,1-1.2-2.86,3.68,3.68,0,0,1,1.18-2.92,5.6,5.6,0,0,1,3.09-1.28Zm-4.8,6.15a2.68,2.68,0,0,0,1.71.57,5.2,5.2,0,0,0,2.33-.56,3.13,3.13,0,0,0,1.9-3V52.73a3.88,3.88,0,0,1-1.07.44,9.05,9.05,0,0,1-1.29.25l-1.38.18a5.32,5.32,0,0,0-1.86.52A2,2,0,0,0,289.41,56,1.87,1.87,0,0,0,290.13,57.57Z" transform="translate(-12.37 -12.6)"/><path class="cls-3" d="M131.6,12.6c-6.27,0-11.34,4.66-11.34,10.42s5.08,10.42,11.34,10.42S142.94,28.78,142.94,23,137.86,12.6,131.6,12.6Zm3.94,16.29a5.37,5.37,0,0,1-4,1.35q-3.24,0-4.51-1.95a5.41,5.41,0,0,1-.74-2.71h3a2.94,2.94,0,0,0,.29,1.39,2.05,2.05,0,0,0,2,1,2.31,2.31,0,0,0,1.54-.56,2,2,0,0,0,.66-1.6A1.8,1.8,0,0,0,132.53,24a6.68,6.68,0,0,0-2.19-.26v-2a6.11,6.11,0,0,0,2-.26,1.6,1.6,0,0,0,1-1.65,1.76,1.76,0,0,0-.51-1.31,2,2,0,0,0-1.44-.5,1.89,1.89,0,0,0-1.56.62,2.47,2.47,0,0,0-.48,1.66h-2.8a6.43,6.43,0,0,1,.39-2,4.48,4.48,0,0,1,1.16-1.52,4.12,4.12,0,0,1,1.4-.76,6.56,6.56,0,0,1,2-.26,5.61,5.61,0,0,1,3.53,1,3.35,3.35,0,0,1,1.34,2.79,2.94,2.94,0,0,1-.8,2.09,2.73,2.73,0,0,1-1.05.73,2.22,2.22,0,0,1,1.18.65,3.32,3.32,0,0,1,1.15,2.67A4.31,4.31,0,0,1,135.53,28.9Z" transform="translate(-12.37 -12.6)"/><path class="cls-3" d="M47.51,27.2q5.65-5.58,14.69-5.58,13.91,0,19.08,11.31,2.94,6.41,2.94,16.87,0,10.15-2.82,16.95Q76,79.68,61.65,79.68A21.36,21.36,0,0,1,49.34,76a14.39,14.39,0,0,1-6.26-10.87H55a6.46,6.46,0,0,0,2.27,4,7.42,7.42,0,0,0,4.92,1.54q5.93,0,8.32-6a32.57,32.57,0,0,0,1.64-9.69,12.65,12.65,0,0,1-3.49,2.9,17,17,0,0,1-8.28,1.85,19.79,19.79,0,0,1-12.9-4.61q-5.63-4.61-5.63-13.3Q41.85,32.78,47.51,27.2ZM67.66,49.42q4.08-2.39,4.08-8.3a11.08,11.08,0,0,0-2.42-7.53,8.32,8.32,0,0,0-6.62-2.78,8.71,8.71,0,0,0-5.25,1.58Q54,34.87,54,40.77q0,5,2.21,7.47T63,50.73A8.91,8.91,0,0,0,67.66,49.42Z" transform="translate(-12.37 -12.6)"/><path class="cls-3" d="M25.8,50.38c0,37.72,26.38,37.72,26.38,37.72-13.91,0-39.81,0-39.81-37.72s25.9-37.72,39.81-37.72C52.18,12.66,25.8,12.66,25.8,50.38Z" transform="translate(-12.37 -12.6)"/><path class="cls-3" d="M100.27,50.38c0,37.72-26.38,37.72-26.38,37.72,13.91,0,39.81,0,39.81-37.72S87.8,12.66,73.89,12.66C73.89,12.66,100.27,12.66,100.27,50.38Z" transform="translate(-12.37 -12.6)"/></svg>