<?xml version="1.0" encoding="utf-8"?>
<!-- Generator: Adobe Illustrator 21.0.0, SVG Export Plug-In . SVG Version: 6.00 Build 0)  -->
<svg version="1.1" id="Layer_1" xmlns="http://www.w3.org/2000/svg" xmlns:xlink="http://www.w3.org/1999/xlink" x="0px" y="0px"
	 viewBox="0 0 288.7 86.2" style="enable-background:new 0 0 288.7 86.2;" xml:space="preserve">
<style type="text/css">
	.st0{fill:#5184C2;}
	.st1{fill:#676767;}
</style>
<g>
	<path class="st0" d="M194.5,5.1c-6,0-10.9,4.9-10.9,10.9s4.9,10.9,10.9,10.9S205.4,22,205.4,16S200.6,5.1,194.5,5.1z M198.3,22.2
		c-0.9,0.9-2.1,1.4-3.8,1.4c-2.1,0-3.5-0.7-4.3-2c-0.4-0.7-0.7-1.7-0.7-2.8h2.8c0,0.6,0.1,1.1,0.3,1.5c0.4,0.7,1,1.1,1.9,1.1
		c0.6,0,1.1-0.2,1.5-0.6s0.6-0.9,0.6-1.7c0-1-0.4-1.6-1.2-1.9c-0.4-0.2-1.1-0.3-2.1-0.3v-2.1c0.9,0,1.6-0.1,2-0.3
		c0.6-0.3,1-0.9,1-1.7c0-0.6-0.2-1-0.5-1.4s-0.8-0.5-1.4-0.5c-0.7,0-1.2,0.2-1.5,0.6s-0.5,1-0.5,1.7h-2.7c0-0.7,0.2-1.4,0.4-2.1
		c0.2-0.6,0.6-1.1,1.1-1.6c0.4-0.3,0.8-0.6,1.3-0.8c0.5-0.2,1.2-0.3,1.9-0.3c1.4,0,2.5,0.4,3.4,1.1s1.3,1.7,1.3,2.9
		c0,0.9-0.3,1.6-0.8,2.2c-0.3,0.4-0.7,0.6-1,0.8c0.3,0,0.6,0.2,1.1,0.7c0.7,0.7,1.1,1.6,1.1,2.8C199.6,20.1,199.2,21.2,198.3,22.2z"
		/>
	<g>
		<path class="st0" d="M113.7,20.4c3.6-3.9,8.3-5.8,14.1-5.8c8.9,0,15,3.9,18.3,11.8c1.9,4.5,2.8,10.4,2.8,17.7
			c0,7.1-0.9,13-2.7,17.7c-3.4,9-9.8,13.5-19,13.5c-4.4,0-8.3-1.3-11.8-3.9s-5.5-6.4-6-11.4h11.5c0.3,1.7,1,3.1,2.2,4.2
			s2.8,1.6,4.7,1.6c3.8,0,6.5-2.1,8-6.3c0.8-2.3,1.4-5.7,1.6-10.1c-1.1,1.3-2.2,2.3-3.4,3c-2.2,1.3-4.8,1.9-8,1.9
			c-4.7,0-8.8-1.6-12.4-4.8c-3.6-3.2-5.4-7.9-5.4-13.9C108.3,29.4,110.1,24.3,113.7,20.4z M133.1,43.6c2.6-1.7,3.9-4.6,3.9-8.7
			c0-3.3-0.8-5.9-2.3-7.9c-1.5-1.9-3.7-2.9-6.4-2.9c-2,0-3.7,0.6-5.1,1.7c-2.2,1.7-3.3,4.6-3.3,8.8c0,3.5,0.7,6.1,2.1,7.8
			s3.6,2.6,6.5,2.6C130.2,45,131.7,44.5,133.1,43.6z"/>
		<path class="st0" d="M92.8,44.6c0,39.5,25.4,39.5,25.4,39.5c-13.4,0-38.3,0-38.3-39.5s24.9-39.5,38.3-39.5
			C118.2,5.2,92.8,5.2,92.8,44.6z"/>
		<path class="st0" d="M164.4,44.6c0,39.5-25.4,39.5-25.4,39.5c13.4,0,38.3,0,38.3-39.5S152.4,5.1,139,5.1
			C139.1,5.2,164.4,5.2,164.4,44.6z"/>
	</g>
</g>
<path class="st1" d="M65.4,27.5c0,4.8-0.9,8.8-2.7,12.1c-1.8,3.3-4.2,5.9-7.2,7.9S49,51,45.1,51.9s-8,1.4-12.2,1.4h-9.8v30.8H3.4
	V2.3h30c4.5,0,8.6,0.4,12.5,1.3c3.9,0.9,7.3,2.3,10.2,4.3c2.9,2,5.2,4.5,6.8,7.7C64.5,18.9,65.4,22.8,65.4,27.5z M45.6,27.6
	c0-1.9-0.4-3.5-1.2-4.7s-1.8-2.2-3.1-2.9c-1.3-0.7-2.8-1.2-4.4-1.4c-1.7-0.2-3.4-0.3-5.1-0.3h-8.7v19.3h8.3c1.8,0,3.6-0.2,5.3-0.5
	s3.2-0.8,4.6-1.6c1.3-0.8,2.4-1.8,3.2-3.1C45.2,31.1,45.6,29.5,45.6,27.6z"/>
<path class="st1" d="M275.3,82.6c-5.3,2.4-11.4,3.6-18.4,3.6c-6.3,0-12.1-1-17.5-3.1s-10-5-13.9-8.8s-7-8.4-9.2-13.7
	c-2.2-5.3-3.3-11.2-3.3-17.6c0-6.5,1.1-12.5,3.4-17.8c2.3-5.3,5.4-9.8,9.4-13.6c4-3.7,8.7-6.6,14.1-8.6s11.2-3,17.4-3
	c5.8,0,11.4,1,17,3.1c5.6,2,10.1,5,13.6,8.9l-13.4,13.4c-1.8-2.5-4.3-4.4-7.3-5.7c-3-1.2-6.1-1.8-9.2-1.8c-3.5,0-6.6,0.6-9.5,1.9
	s-5.4,3-7.4,5.3c-2.1,2.2-3.7,4.9-4.9,7.9c-1.2,3-1.7,6.4-1.7,10c0,3.7,0.6,7.1,1.7,10.2c1.2,3.1,2.8,5.7,4.8,7.9
	c2,2.2,4.5,3.9,7.3,5.1s6,1.8,9.4,1.8c3.9,0,7.4-0.8,10.3-2.3s5.3-3.5,7-6l13.7,12.9C285,76.9,280.6,80.2,275.3,82.6z"/>
</svg>
